<?xml version="1.0" encoding="UTF-8" standalone="no"?>
<!-- Created with Inkscape (http://www.inkscape.org/) -->

<svg
   xmlns:dc="http://purl.org/dc/elements/1.1/"
   xmlns:cc="http://creativecommons.org/ns#"
   xmlns:rdf="http://www.w3.org/1999/02/22-rdf-syntax-ns#"
   xmlns:svg="http://www.w3.org/2000/svg"
   xmlns="http://www.w3.org/2000/svg"
   xmlns:sodipodi="http://sodipodi.sourceforge.net/DTD/sodipodi-0.dtd"
   xmlns:inkscape="http://www.inkscape.org/namespaces/inkscape"
   width="840"
   height="280"
   id="svg2"
   version="1.1"
   inkscape:version="0.48.4 r9939"
   sodipodi:docname="logo.svg"
   inkscape:export-filename="/home/dfki.uni-bremen.de/afabisch/Projekte/bolero-dev/learning/bolero/doc/source/_static/logo.svg.png"
   inkscape:export-xdpi="90"
   inkscape:export-ydpi="90">
  <sodipodi:namedview
     id="base"
     pagecolor="#ffffff"
     bordercolor="#666666"
     borderopacity="1.0"
     inkscape:pageopacity="0.0"
     inkscape:pageshadow="2"
     inkscape:zoom="0.70710678"
     inkscape:cx="391.8651"
     inkscape:cy="177.5437"
     inkscape:document-units="px"
     inkscape:current-layer="svg2"
     showgrid="false"
     inkscape:window-width="1366"
     inkscape:window-height="713"
     inkscape:window-x="-3"
     inkscape:window-y="-3"
     inkscape:window-maximized="1" />
  <defs
     id="defs4" />
  <metadata
     id="metadata7">
    <rdf:RDF>
      <cc:Work
         rdf:about="">
        <dc:format>image/svg+xml</dc:format>
        <dc:type
           rdf:resource="http://purl.org/dc/dcmitype/StillImage" />
        <dc:title />
      </cc:Work>
    </rdf:RDF>
  </metadata>
  <g
     transform="translate(0,-772.36218)"
     id="layer1"
     inkscape:groupmode="layer"
     inkscape:label="Layer 1" />
  <path
     style="fill:#c91b00;fill-opacity:1;stroke:none;opacity:0.5"
     d="m 33.34861,272.20963 c -8.83882,-2.8677 -15.99723,-9.18897 -18.42906,-16.27386 -2.22931,-6.49487 -1.54484,-18.80988 1.4789,-26.6086 1.44429,-3.72505 2.62598,-7.40303 2.62598,-8.17327 0,-5.20802 -14.396,-13.7858 -27.25139,-16.23761 -15.14133,-2.88777 -45.363538,-0.30874 -79.74268,6.8049 -14.19059,2.93627 -32.19977,7.24849 -35.39883,8.47608 -1.46814,0.56338 -1.6071,-6.52593 -1.6071,-81.99028 0,-45.43385 0.3375,-82.60202 0.75,-82.59594 0.4125,0.006 8.85,1.12192 18.75,2.47966 9.9,1.35773 28.9322,3.24137 42.293773,4.18588 20.349698,1.43848 26.681316,1.53043 38.999997,0.56636 8.08843,-0.633 17.32333,-1.84861 20.522,-2.70135 6.99626,-1.86516 22.68423,-8.5555 22.68423,-9.67399 0,-0.43848 -1.0125,-1.31574 -2.25,-1.94947 C 11.22099,45.67423 8.84531,40.46054 8.91988,31.28049 9.0533,14.85487 21.37621,5.56648 41.27367,6.89383 c 9.87166,0.65853 19.14243,4.73063 23.35931,10.26036 4.05829,5.32177 4.01507,14.1624 -0.11398,23.31325 -2.6269,5.82178 -2.74977,6.58449 -1.43384,8.90011 0.7916,1.39296 3.9161,3.82549 6.94334,5.40562 8.07544,4.21514 19.24765,5.21345 43.27523,3.86691 18.39042,-1.03062 60.57631,-4.36146 71.33302,-5.63219 l 5.11233,-0.60393 0.69075,8.34802 c 0.98754,11.93473 3.33987,23.91877 6.73333,34.30316 3.25122,9.9491 11.26055,27.54497 12.53784,27.54466 0.44739,-1.1e-4 2.16343,-2.80601 3.81343,-6.23534 2.36082,-4.90668 3.89183,-6.72607 7.1858,-8.53931 9.27266,-5.10435 21.23742,-3.56582 29.61462,3.80809 8.63141,7.59767 13.74547,22.89633 11.75076,35.15229 -2.56421,15.75512 -11.48191,21.90112 -29.69239,20.46373 -4.32233,-0.34118 -11.59189,-0.91084 -16.15456,-1.26592 l -8.29577,-0.64561 -4.245,4.43033 c -2.33475,2.43668 -5.10175,6.20819 -6.1489,8.38114 -2.51295,5.21466 -3.06909,14.58446 -1.27321,21.4508 l 1.43851,5.5 -49.58993,0 c -64.72319,0 -77.70818,1.41186 -86.06064,9.35735 -6.486,6.16999 -6.40037,7.59662 1.5691,26.14265 3.9577,9.21012 4.47248,19.17362 1.23692,23.94072 -3.62037,5.33405 -10.78298,8.51307 -19.80803,8.7915 -4.27324,0.13184 -9.33249,-0.35346 -11.7031,-1.12259 l 0,0 z"
     id="path5666"
     inkscape:connector-curvature="0" />
  <path
     style="fill:#2956c5;fill-opacity:1;stroke:none;opacity:0.5"
     d="m 362.85393,268.17458 c -14.29274,-3.26488 -21.96798,-10.10045 -23.81759,-21.21196 -1.40353,-8.43163 2.92689,-15.83263 11.29101,-19.29717 1.77837,-0.73662 3.07418,-1.81698 2.87957,-2.4008 -0.6074,-1.82219 -13.45005,-6.51705 -23.55354,-8.6104 -18.18659,-3.76809 -58.48369,-7.61159 -105.16801,-10.03081 -10.725,-0.55578 -20.87743,-1.01342 -22.56095,-1.01697 -2.82825,-0.006 -3.15701,-0.38125 -4.32442,-4.93625 -0.69491,-2.71138 -1.28056,-7.89355 -1.30146,-11.51592 -0.0331,-5.73791 0.39505,-7.30576 3.32441,-12.17358 1.84933,-3.07308 4.68763,-6.71067 6.30734,-8.08353 2.74605,-2.32754 3.45513,-2.45573 10.5,-1.89819 22.94185,1.81563 25.73676,1.83546 31.28701,0.22195 10.02828,-2.9153 15.76807,-12.41326 15.76807,-26.09235 0,-22.41274 -15.1327,-39.13643 -33.68099,-37.22208 -8.51498,0.87883 -13.27908,4.09742 -16.87765,11.40244 l -3.05863,6.20897 -1.58052,-2.70897 C 199.7062,104.1007 191.48537,74.14751 191.48537,57.58891 l 0,-4.86636 4.25,-0.56395 c 6.54777,-0.86883 46.87984,-4.35137 69.97077,-6.04174 27.03275,-1.97893 57.16401,-1.98603 65.52173,-0.0154 7.49025,1.76606 18.20466,6.48926 20.18745,8.89917 1.25125,1.5208 1.14908,2.69265 -0.81759,9.37734 -1.23614,4.20164 -2.65044,11.172 -3.14288,15.48967 -1.86488,16.3511 2.72413,25.62333 14.46202,29.22092 6.59138,2.02022 11.08445,1.90479 18.81659,-0.48343 12.59813,-3.89116 20.72264,-14.3454 20.74214,-26.68999 0.0115,-7.27986 -0.74642,-9.56491 -6.1553,-18.55771 -2.97566,-4.94733 -3.89222,-7.39301 -3.44236,-9.18537 0.77396,-3.08373 7.92953,-8.93295 12.87705,-10.52617 4.51055,-1.4525 25.20812,-1.50118 38.79777,-0.0912 22.47393,2.33168 92.53662,12.31607 93.55237,13.33182 0.2284,0.2284 -0.25903,3.06989 -1.08319,6.31442 -4.27558,16.83213 -3.75333,28.15966 1.83953,39.89915 6.22829,13.07325 8.52077,14.10734 18.28732,8.24899 8.06685,-4.83881 12.6193,-6.15034 21.33658,-6.1469 9.06328,0.004 14.57755,2.45159 18.87004,8.3772 4.00664,5.531 5.48705,11.67323 4.88679,20.2752 -1.08255,15.51337 -9.44364,27.89782 -21.10347,31.25847 -9.39823,2.7088 -15.50248,1.17545 -27.50385,-6.90881 -6.68887,-4.5057 -9.98161,-4.6182 -14.11746,-0.48235 -11.07659,11.07658 -10.73763,24.21051 1.34806,52.23473 2.99893,6.95391 5.04278,12.64347 4.54188,12.64347 -0.50089,0 -13.17575,-1.78783 -28.16635,-3.97296 -66.60922,-9.70941 -99.76457,-12.71738 -111.12479,-10.08162 -5.05927,1.17383 -11.04469,6.04019 -11.43699,9.29869 -0.247,2.05154 1.27005,4.06907 7.85206,10.44248 6.87716,6.65921 8.3539,8.67041 9.40453,12.8082 1.34756,5.30725 0.56773,11.27182 -1.98583,15.18863 -6.40724,9.82783 -29.28871,15.73045 -46.09606,11.89116 l 0,0 z"
     id="path5672"
     inkscape:connector-curvature="0" />
  <path
     style="fill:#217a17;fill-opacity:1;stroke:none;opacity:0.5"
     d="m 748.3482,237.96234 c -4.30649,-0.77307 -13.11899,-6.60146 -15.66781,-10.36234 -2.72373,-4.01895 -2.661,-8.89244 0.28314,-22 2.45524,-10.93091 1.79651,-20.64004 -1.71247,-25.24055 -6.90496,-9.05287 -25.66739,-12.20838 -40.06406,-6.73808 -10.44516,3.96885 -16.68972,10.50107 -18.72637,19.58901 -2.30062,10.26586 1.09779,17.7993 11.6391,25.80096 3.95857,3.00487 6.3567,5.52803 6.17789,6.5 -0.16074,0.87376 -3.51338,3.22511 -7.45032,5.22522 -9.02621,4.58565 -18.19499,5.47053 -40.34193,3.89343 -27.31763,-1.94531 -93.79022,-10.57795 -95.59648,-12.41489 -1.56134,-1.58785 -10.81574,-23.82103 -13.30747,-31.97044 -2.94405,-9.62876 -2.78139,-17.87669 0.4817,-24.42485 2.91565,-5.85094 7.52328,-10.22614 10.74897,-10.20673 1.1953,0.007 5.46982,2.22047 9.49892,4.9184 8.33959,5.58428 15.06012,7.60347 21.95976,6.59782 10.38977,-1.51434 17.47461,-7.41589 22.92863,-19.09917 2.46939,-5.28977 2.76928,-7.06396 2.77715,-16.43013 0.008,-9.79391 -0.192,-10.86261 -2.97751,-15.89221 -3.59397,-6.48937 -8.11759,-9.69358 -15.88841,-11.25418 -8.13003,-1.63274 -17.04861,0.13098 -26.32816,5.20662 -7.99499,4.37302 -10.25741,4.76847 -12.52812,2.18977 -1.91786,-2.17799 -6.51278,-11.27239 -8.40489,-16.63519 -2.21036,-6.26483 -1.93705,-18.06947 0.67264,-29.05238 2.23881,-9.42205 2.35353,-9.63658 4.878,-9.12171 6.15616,1.25554 36.52013,5.66617 59.58527,8.65526 20.07896,2.60211 28.73999,3.256 44,3.32193 18.72092,0.0809 19.09317,0.0409 25.34324,-2.71984 9.0277,-3.9877 13.12991,-6.85931 13.14438,-9.20127 0.007,-1.10176 -1.57308,-4.23318 -3.51086,-6.95871 -8.14193,-11.4518 -8.70922,-26.9477 -1.31492,-35.91826 C 689.65902,0.86059 722.13161,1.09502 731.307,14.6 c 2.06591,3.04075 2.30619,4.29843 1.83119,9.58494 -0.30071,3.34672 -2.13492,10.3245 -4.07602,15.50618 -4.64867,12.40942 -5.06078,14.81479 -3.27179,19.09646 4.36197,10.43966 19.484,14.13485 48.37305,11.82036 23.9828,-1.92142 61.71792,-7.65649 96.07774,-14.60212 l 3.25581,-0.65814 -0.25581,82.84858 -0.2558,82.84858 -9.5,2.27911 c -14.68704,3.52353 -48.02979,10.05634 -63,12.34354 -12.90913,1.9723 -45.85569,3.42246 -52.13717,2.29485 z"
     id="path5674"
     inkscape:connector-curvature="0" />
  <text
     xml:space="preserve"
     style="font-style:normal;font-weight:normal;font-size:40px;line-height:125%;font-family:Sans;letter-spacing:0px;word-spacing:0px;fill:#000000;fill-opacity:1;stroke:none"
     x="12"
     y="209"
     id="text5676"
     sodipodi:linespacing="125%"><tspan
       sodipodi:role="line"
       id="tspan5678"
       x="12"
       y="209"
       style="font-style:italic;font-variant:normal;font-weight:500;font-stretch:normal;font-size:250px;font-family:URW Chancery L;-inkscape-font-specification:URW Chancery L Bold Italic;fill:#000000;fill-opacity:1">BOLeRo</tspan></text>
</svg>
