<?xml version="1.0" encoding="UTF-8" standalone="no"?>
<!-- Created with Inkscape (http://www.inkscape.org/) -->

<svg
   xmlns:dc="http://purl.org/dc/elements/1.1/"
   xmlns:cc="http://creativecommons.org/ns#"
   xmlns:rdf="http://www.w3.org/1999/02/22-rdf-syntax-ns#"
   xmlns:svg="http://www.w3.org/2000/svg"
   xmlns="http://www.w3.org/2000/svg"
   xmlns:xlink="http://www.w3.org/1999/xlink"
   xmlns:sodipodi="http://sodipodi.sourceforge.net/DTD/sodipodi-0.dtd"
   xmlns:inkscape="http://www.inkscape.org/namespaces/inkscape"
   width="87.80616mm"
   height="66.954338mm"
   viewBox="0 0 311.12419 237.23978"
   id="svg4167"
   version="1.1"
   inkscape:version="0.91 r13725"
   sodipodi:docname="draft_foo.svg">
  <defs
     id="defs4169">
    <marker
       inkscape:stockid="Arrow1Send"
       orient="auto"
       refY="0"
       refX="0"
       id="Arrow1Send"
       style="overflow:visible"
       inkscape:isstock="true">
      <path
         id="path4855"
         d="M 0,0 5,-5 -12.5,0 5,5 0,0 Z"
         style="fill:#aeaeae;fill-opacity:1;fill-rule:evenodd;stroke:#aeaeae;stroke-width:1pt;stroke-opacity:1"
         transform="matrix(-0.2,0,0,-0.2,-1.2,0)"
         inkscape:connector-curvature="0" />
    </marker>
    <marker
       inkscape:stockid="Arrow1Sstart"
       orient="auto"
       refY="0"
       refX="0"
       id="Arrow1Sstart"
       style="overflow:visible"
       inkscape:isstock="true">
      <path
         id="path4852"
         d="M 0,0 5,-5 -12.5,0 5,5 0,0 Z"
         style="fill:#aeaeae;fill-opacity:1;fill-rule:evenodd;stroke:#aeaeae;stroke-width:1pt;stroke-opacity:1"
         transform="matrix(0.2,0,0,0.2,1.2,0)"
         inkscape:connector-curvature="0" />
    </marker>
    <marker
       inkscape:stockid="Arrow1Mend"
       orient="auto"
       refY="0"
       refX="0"
       id="Arrow1Mend"
       style="overflow:visible"
       inkscape:isstock="true">
      <path
         id="path4849"
         d="M 0,0 5,-5 -12.5,0 5,5 0,0 Z"
         style="fill:#000000;fill-opacity:1;fill-rule:evenodd;stroke:#000000;stroke-width:1pt;stroke-opacity:1"
         transform="matrix(-0.4,0,0,-0.4,-4,0)"
         inkscape:connector-curvature="0" />
    </marker>
    <marker
       inkscape:stockid="Arrow1Mstart"
       orient="auto"
       refY="0"
       refX="0"
       id="Arrow1Mstart"
       style="overflow:visible"
       inkscape:isstock="true">
      <path
         id="path4846"
         d="M 0,0 5,-5 -12.5,0 5,5 0,0 Z"
         style="fill:#000000;fill-opacity:1;fill-rule:evenodd;stroke:#000000;stroke-width:1pt;stroke-opacity:1"
         transform="matrix(0.4,0,0,0.4,4,0)"
         inkscape:connector-curvature="0" />
    </marker>
    <marker
       inkscape:stockid="Arrow1Lstart"
       orient="auto"
       refY="0"
       refX="0"
       id="Arrow1Lstart"
       style="overflow:visible"
       inkscape:isstock="true">
      <path
         id="path4840"
         d="M 0,0 5,-5 -12.5,0 5,5 0,0 Z"
         style="fill:#000000;fill-opacity:1;fill-rule:evenodd;stroke:#000000;stroke-width:1pt;stroke-opacity:1"
         transform="matrix(0.8,0,0,0.8,10,0)"
         inkscape:connector-curvature="0" />
    </marker>
    <linearGradient
       inkscape:collect="always"
       id="linearGradient4781">
      <stop
         style="stop-color:#32b432;stop-opacity:1"
         offset="0"
         id="stop4783" />
      <stop
         style="stop-color:#d2ffd2;stop-opacity:1"
         offset="1"
         id="stop4785" />
    </linearGradient>
    <linearGradient
       id="linearGradient4741"
       inkscape:collect="always">
      <stop
         id="stop4743"
         offset="0"
         style="stop-color:#bcc000;stop-opacity:1" />
      <stop
         id="stop4745"
         offset="1"
         style="stop-color:#ffffdd;stop-opacity:1" />
    </linearGradient>
    <linearGradient
       inkscape:collect="always"
       id="linearGradient4729">
      <stop
         style="stop-color:#3d6ec7;stop-opacity:1"
         offset="0"
         id="stop4731" />
      <stop
         style="stop-color:#cde0ff;stop-opacity:1"
         offset="1"
         id="stop4733" />
    </linearGradient>
    <linearGradient
       inkscape:collect="always"
       xlink:href="#linearGradient4729"
       id="linearGradient4735"
       x1="159.68381"
       y1="160.29977"
       x2="103.71468"
       y2="66.151039"
       gradientUnits="userSpaceOnUse"
       gradientTransform="translate(157.77778,25.185185)" />
    <linearGradient
       inkscape:collect="always"
       xlink:href="#linearGradient4741"
       id="linearGradient4739"
       gradientUnits="userSpaceOnUse"
       x1="159.68381"
       y1="160.29977"
       x2="103.71468"
       y2="66.397949"
       gradientTransform="translate(-2.2222222,25.185185)" />
    <linearGradient
       inkscape:collect="always"
       xlink:href="#linearGradient4741"
       id="linearGradient4757"
       gradientUnits="userSpaceOnUse"
       gradientTransform="translate(-10.222222,41.185185)"
       x1="159.68381"
       y1="160.29977"
       x2="103.71468"
       y2="66.397949" />
    <linearGradient
       inkscape:collect="always"
       xlink:href="#linearGradient4741"
       id="linearGradient4761"
       gradientUnits="userSpaceOnUse"
       gradientTransform="translate(-18.222222,57.185185)"
       x1="159.68381"
       y1="160.29977"
       x2="103.71468"
       y2="66.397949" />
    <linearGradient
       inkscape:collect="always"
       xlink:href="#linearGradient4729"
       id="linearGradient4765"
       gradientUnits="userSpaceOnUse"
       x1="159.68381"
       y1="160.29977"
       x2="103.71468"
       y2="66.151039"
       gradientTransform="translate(165.77778,41.185185)" />
    <linearGradient
       inkscape:collect="always"
       xlink:href="#linearGradient4729"
       id="linearGradient4769"
       gradientUnits="userSpaceOnUse"
       gradientTransform="translate(173.77778,57.185185)"
       x1="159.68381"
       y1="160.29977"
       x2="103.71468"
       y2="66.151039" />
    <linearGradient
       inkscape:collect="always"
       xlink:href="#linearGradient4781"
       id="linearGradient4787"
       x1="213.821"
       y1="61.127636"
       x2="213.58644"
       y2="17.423933"
       gradientUnits="userSpaceOnUse"
       gradientTransform="translate(-1.0110839,-12.573443)" />
  </defs>
  <sodipodi:namedview
     id="base"
     pagecolor="#ffffff"
     bordercolor="#666666"
     borderopacity="1.0"
     inkscape:pageopacity="0.0"
     inkscape:pageshadow="2"
     inkscape:zoom="4.05"
     inkscape:cx="75.849126"
     inkscape:cy="117.77995"
     inkscape:document-units="px"
     inkscape:current-layer="layer1"
     showgrid="false"
     fit-margin-top="0.1"
     fit-margin-left="0.1"
     fit-margin-bottom="0.1"
     fit-margin-right="0.1"
     inkscape:window-width="2560"
     inkscape:window-height="1349"
     inkscape:window-x="10"
     inkscape:window-y="0"
     inkscape:window-maximized="0" />
  <metadata
     id="metadata4172">
    <rdf:RDF>
      <cc:Work
         rdf:about="">
        <dc:format>image/svg+xml</dc:format>
        <dc:type
           rdf:resource="http://purl.org/dc/dcmitype/StillImage" />
        <dc:title></dc:title>
      </cc:Work>
    </rdf:RDF>
  </metadata>
  <g
     inkscape:label="Layer 1"
     inkscape:groupmode="layer"
     id="layer1"
     transform="translate(-48.365098,-1.6504796)">
    <g
       id="g4817">
      <g
         id="g4810">
        <path
           style="fill:url(#linearGradient4735);fill-opacity:1;fill-rule:evenodd;stroke:#000000;stroke-width:1px;stroke-linecap:butt;stroke-linejoin:miter;stroke-opacity:1"
           d="m 247.29089,91.405068 28.73483,0 c 5.43011,0 -1.32135,-4.191409 -3.75204,-9.457093 -14.58712,-31.600558 41.56854,-40.340127 24.02808,-1.488612 -1.82973,4.052792 -7.08912,10.945709 0.0271,10.945709 l 24.37032,0 0,29.588018 c 0.0476,6.08025 0.26864,14.08481 -10.36032,6.8342 -32.52403,-19.26918 -30.66428,36.88898 -0.84809,25.65906 6.15229,-2.03315 10.59639,-0.26968 11.20841,6.10254 l 0,29.94352 -73.55911,0 z"
           id="path4719"
           inkscape:connector-curvature="0"
           sodipodi:nodetypes="csssscccccccc" />
        <path
           sodipodi:nodetypes="csssscccccccc"
           inkscape:connector-curvature="0"
           id="path4763"
           d="m 255.29089,107.40507 28.73483,0 c 5.43011,0 -1.32135,-4.19141 -3.75204,-9.457095 -14.58712,-31.600558 41.56854,-40.340127 24.02808,-1.488612 -1.82973,4.052797 -7.08912,10.945707 0.0271,10.945707 l 24.37032,0 0,29.58802 c 0.0476,6.08025 0.26864,14.08481 -10.36032,6.8342 -32.52403,-19.26918 -30.66428,36.88898 -0.84809,25.65906 6.15229,-2.03315 10.59639,-0.26968 11.20841,6.10254 l 0,29.94352 -73.55911,0 z"
           style="fill:url(#linearGradient4765);fill-opacity:1;fill-rule:evenodd;stroke:#000000;stroke-width:1px;stroke-linecap:butt;stroke-linejoin:miter;stroke-opacity:1" />
        <path
           style="fill:url(#linearGradient4769);fill-opacity:1;fill-rule:evenodd;stroke:#000000;stroke-width:1px;stroke-linecap:butt;stroke-linejoin:miter;stroke-opacity:1"
           d="m 263.29089,123.40507 28.73483,0 c 5.43011,0 -1.32135,-4.19141 -3.75204,-9.45709 -14.58712,-31.600563 41.56854,-40.340132 24.02808,-1.48862 -1.82973,4.0528 -7.08912,10.94571 0.0271,10.94571 l 24.37032,0 0,29.58802 c 0.0476,6.08025 0.26864,14.08481 -10.36032,6.8342 -32.52403,-19.26917 -30.66428,36.88898 -0.84809,25.65906 6.15229,-2.03315 10.59639,-0.26968 11.20841,6.10254 l 0,29.94352 -73.5591,0 z"
           id="path4767"
           inkscape:connector-curvature="0"
           sodipodi:nodetypes="csssscccccccc" />
        <text
           xml:space="preserve"
           style="font-style:normal;font-weight:normal;font-size:17.5px;line-height:125%;font-family:sans-serif;text-align:center;letter-spacing:0px;word-spacing:0px;text-anchor:middle;fill:#000000;fill-opacity:1;stroke:none;stroke-width:1px;stroke-linecap:butt;stroke-linejoin:miter;stroke-opacity:1"
           x="299.49994"
           y="238.28812"
           id="text4771"
           sodipodi:linespacing="125%"><tspan
             sodipodi:role="line"
             id="tspan4773"
             x="299.49994"
             y="238.28812">Environments</tspan></text>
      </g>
      <g
         id="g4803">
        <path
           sodipodi:nodetypes="csssscccccccc"
           inkscape:connector-curvature="0"
           id="path4737"
           d="m 87.290887,91.405068 28.734833,0 c 5.43011,0 -1.32135,-4.191409 -3.75204,-9.457093 -14.587123,-31.600558 41.56854,-40.340127 24.02808,-1.488612 -1.82973,4.052792 -7.08912,10.945709 0.0271,10.945709 l 24.37032,0 0,29.588018 c 0.0476,6.08025 0.26864,14.08481 -10.36032,6.8342 -32.52403,-19.26918 -30.66428,36.88898 -0.84809,25.65906 6.15229,-2.03315 10.59639,-0.26968 11.20841,6.10254 l 0,29.94352 -73.559106,0 z"
           style="fill:url(#linearGradient4739);fill-opacity:1;fill-rule:evenodd;stroke:#000000;stroke-width:1px;stroke-linecap:butt;stroke-linejoin:miter;stroke-opacity:1" />
        <path
           style="fill:url(#linearGradient4757);fill-opacity:1;fill-rule:evenodd;stroke:#000000;stroke-width:1px;stroke-linecap:butt;stroke-linejoin:miter;stroke-opacity:1"
           d="m 79.290887,107.40507 28.734833,0 c 5.43011,0 -1.32135,-4.19141 -3.75204,-9.457095 -14.587123,-31.600558 41.56854,-40.340127 24.02808,-1.488612 -1.82973,4.052797 -7.08912,10.945707 0.0271,10.945707 l 24.37032,0 0,29.58802 c 0.0476,6.08025 0.26864,14.08481 -10.36032,6.8342 -32.52403,-19.26918 -30.66428,36.88898 -0.84809,25.65906 6.15229,-2.03315 10.59639,-0.26968 11.20841,6.10254 l 0,29.94352 -73.559106,0 z"
           id="path4755"
           inkscape:connector-curvature="0"
           sodipodi:nodetypes="csssscccccccc" />
        <path
           sodipodi:nodetypes="csssscccccccc"
           inkscape:connector-curvature="0"
           id="path4759"
           d="m 71.290887,123.40507 28.734833,0 c 5.43011,0 -1.321352,-4.19141 -3.752042,-9.45709 -14.587121,-31.600563 41.568542,-40.340132 24.028082,-1.48862 -1.82973,4.0528 -7.08912,10.94571 0.0271,10.94571 l 24.37032,0 0,29.58802 c 0.0476,6.08025 0.26864,14.08481 -10.36032,6.8342 -32.52403,-19.26917 -30.66428,36.88898 -0.84809,25.65906 6.15229,-2.03315 10.59639,-0.26968 11.20841,6.10254 l 0,29.94352 -73.559106,0 z"
           style="fill:url(#linearGradient4761);fill-opacity:1;fill-rule:evenodd;stroke:#000000;stroke-width:1px;stroke-linecap:butt;stroke-linejoin:miter;stroke-opacity:1" />
        <text
           sodipodi:linespacing="125%"
           id="text4775"
           y="238.28812"
           x="47.0019"
           style="font-style:normal;font-weight:normal;font-size:17.5px;line-height:125%;font-family:sans-serif;letter-spacing:0px;word-spacing:0px;fill:#000000;fill-opacity:1;stroke:none;stroke-width:1px;stroke-linecap:butt;stroke-linejoin:miter;stroke-opacity:1"
           xml:space="preserve"><tspan
             y="238.28812"
             x="47.0019"
             id="tspan4777"
             sodipodi:role="line">Behavior Search</tspan></text>
      </g>
    </g>
    <rect
       style="opacity:1;fill:url(#linearGradient4787);fill-opacity:1;fill-rule:nonzero;stroke:#000000;stroke-opacity:1"
       id="rect4779"
       width="170.37038"
       height="31.851852"
       x="118.742"
       y="2.5048103" />
    <text
       xml:space="preserve"
       style="font-style:normal;font-weight:normal;font-size:17.5px;line-height:125%;font-family:sans-serif;letter-spacing:0px;word-spacing:0px;fill:#000000;fill-opacity:1;stroke:none;stroke-width:1px;stroke-linecap:butt;stroke-linejoin:miter;stroke-opacity:1"
       x="160.3609"
       y="18.954784"
       id="text4789"
       sodipodi:linespacing="125%"><tspan
         sodipodi:role="line"
         id="tspan4791"
         x="160.3609"
         y="18.954784">Controller</tspan></text>
    <path
       style="fill:none;fill-opacity:1;fill-rule:evenodd;stroke:#aeaeae;stroke-width:4.5;stroke-linecap:butt;stroke-linejoin:miter;stroke-miterlimit:4;stroke-dasharray:none;stroke-opacity:1;marker-start:url(#Arrow1Sstart);marker-end:url(#Arrow1Send)"
       d="M 141.23456,49.646156 C 185.64096,17.330712 225.23471,15.07321 273.08641,49.399242"
       id="path4831"
       inkscape:connector-curvature="0"
       sodipodi:nodetypes="cc" />
  </g>
</svg>
